<svg width="21" height="21" viewBox="0 0 21 21" version="1.1" xmlns="http://www.w3.org/2000/svg" xmlns:xlink="http://www.w3.org/1999/xlink"><title>Combined Shape</title><desc>Created with Sketch Internal.</desc><g id="Symbols" stroke="none" stroke-width="1" fill="none" fill-rule="evenodd"><g id="Card-/-Default" transform="translate(-15.000000, -15.000000)" fill="#FFF"><g id="Card"><path d="M32.636566,23.3478448 L32.68214,23.497022 L32.8355988,23.5249726 C33.4149139,23.6304878 33.945759,23.7358364 34.4165833,23.8360211 C34.6985415,23.8960177 34.8974459,23.9408653 35.0017596,23.9655652 C35.579306,23.972456 36,24.3933774 36,24.9116882 L36,26.107018 C36,26.6259101 35.5796598,27.0462503 35.0607678,27.0462503 C34.8988567,27.0769898 34.700357,27.1207663 34.41892,27.1792829 C33.9489645,27.2769964 33.4189876,27.3796402 32.840481,27.4823047 L32.6854198,27.5098226 L32.64001,27.6606177 C32.4966801,28.1365809 32.3098478,28.5896719 32.0784455,29.0234378 L32.0049555,29.1611956 L32.09375,29.2896227 C32.4277148,29.7726499 32.72682,30.2211332 32.9867133,30.6234736 C33.142329,30.864382 33.2500717,31.0360066 33.3056005,31.1267572 C33.7096692,31.5408894 33.7096692,32.1354054 33.3429605,32.5021142 L32.498373,33.3467017 C32.1316642,33.7134105 31.5371481,33.7134105 31.1704393,33.3467017 C31.0342401,33.2542611 30.8638601,33.1459322 30.6247211,32.9896691 C30.225364,32.7287132 29.7802142,32.4287759 29.300782,32.0943547 L29.1714718,32.0041561 L29.0327047,32.0789934 C28.6213833,32.3008196 28.1869281,32.4829522 27.7272053,32.6267863 L27.5821673,32.6721645 L27.5525039,32.8212125 C27.4370012,33.401573 27.3188556,33.9338382 27.2044933,34.4062356 C27.1360508,34.688952 27.0842303,34.8883569 27.0554621,34.9926986 C27.0462503,35.5796598 26.6259101,36 26.107018,36 L24.9116882,36 C24.3927961,36 23.972456,35.5796598 23.972456,35.0607678 C23.9340849,34.8878834 23.8818276,34.6887806 23.8127738,34.406659 C23.6973932,33.9352676 23.5781133,33.4044763 23.4613899,32.8261462 L23.4313443,32.6772795 L23.2863091,32.6322375 C22.8452414,32.49526 22.4291271,32.3238525 22.0353275,32.1162127 L21.9006632,32.0452079 L21.773946,32.1295813 C21.2823615,32.4568976 20.8232279,32.7477432 20.4092929,32.9985997 C20.1615981,33.1487099 19.9845161,33.2518564 19.8907835,33.3045382 C19.4684638,33.7134105 18.8739477,33.7134105 18.5072389,33.3467017 L17.6626514,32.5021142 C17.2959426,32.1354054 17.2959426,31.5408894 17.6626514,31.1741806 C17.7576777,31.0237644 17.8604027,30.8461076 18.0099725,30.5976637 C18.2599337,30.1824641 18.5498815,29.7220664 18.8763549,29.2293071 L18.9599763,29.103094 L18.8897022,28.9689902 C18.6840523,28.5765491 18.5146173,28.1646779 18.3789512,27.7285431 L18.3337133,27.5831139 L18.1843321,27.5534258 C17.6031677,27.437925 17.0696867,27.319606 16.5958386,27.2049536 C16.3122478,27.136336 16.1120842,27.0843402 16.0072757,27.055455 C15.4203402,27.0462503 15,26.6259101 15,26.107018 L15,24.9116882 C15,24.3933774 15.420694,23.972456 15.9392322,23.972456 C16.1129356,23.933851 16.3134864,23.8812173 16.5975223,23.8117283 C17.0721053,23.6956224 17.6062038,23.5757334 18.1877798,23.4586048 L18.336227,23.4287078 L18.3815663,23.2842268 C18.5184372,22.8480647 18.6880371,22.4370158 18.8934434,22.0450395 L18.964008,21.9103813 L18.8795829,21.7839511 C18.5486346,21.2883418 18.2544134,20.8247126 18.0005278,20.4061639 C17.8486042,20.155707 17.7441671,19.9764455 17.6908062,19.8814676 C17.2819129,19.4591106 17.2819129,18.8645946 17.6486217,18.4978858 L18.4940443,17.6533985 C18.8608533,17.2865895 19.4553694,17.2865895 19.8220782,17.6532983 C19.9737636,17.7490171 20.1536849,17.8530895 20.4051519,18.0046468 C20.8254069,18.2579313 21.2910932,18.5517831 21.7891105,18.8827105 L21.915168,18.9664744 L22.0493423,18.8964449 C22.4596685,18.6822834 22.8906666,18.5074935 23.3459882,18.3702608 L23.49601,18.3250446 L23.5240487,18.170886 C23.6295629,17.5907616 23.735086,17.0585203 23.8355621,16.585948 C23.8957348,16.3029362 23.9407586,16.103094 23.9655764,15.9981929 C23.972456,15.4203402 24.3927961,15 24.9116882,15 L26.107018,15 C26.6259101,15 27.0462503,15.4203402 27.0462503,15.9392322 C27.0770741,16.1018152 27.1210595,16.3017913 27.1798433,16.5851726 C27.2779995,17.0583581 27.3810855,17.591682 27.4841626,18.1734768 L27.5116178,18.3284414 L27.662271,18.3739542 C28.1360961,18.5170983 28.585151,18.7024941 29.0127292,18.9316183 L29.1506998,19.0055519 L29.2794179,18.9164806 C29.7673566,18.5788336 30.2205763,18.276309 30.6273028,18.0133468 C30.8708449,17.8558888 31.044402,17.7468296 31.1362082,17.6905983 C31.5502425,17.2865895 32.1447586,17.2865895 32.5114674,17.6532983 L33.3570904,18.497986 C33.7228241,18.8644546 33.7228241,19.4592506 33.3568086,19.8260011 C33.2638074,19.962883 33.1537544,20.1354759 32.9951807,20.3776469 C32.7303897,20.7820313 32.426381,21.2326764 32.0878269,21.7178964 L31.9978905,21.8467944 L32.0720947,21.9853476 C32.3026927,22.4159172 32.4902367,22.8688663 32.636566,23.3478448 Z M25.5,30 C27.9852814,30 30,27.9852814 30,25.5 C30,23.0147186 27.9852814,21 25.5,21 C23.0147186,21 21,23.0147186 21,25.5 C21,27.9852814 23.0147186,30 25.5,30 Z" id="Combined-Shape"/></g></g></g></svg>