<svg width="22" height="22" viewBox="0 0 22 22" version="1.1" xmlns="http://www.w3.org/2000/svg" xmlns:xlink="http://www.w3.org/1999/xlink"><title>Group 2</title><desc>Created with Sketch Internal.</desc><defs><path d="M0,0 L20,0 L20,19 L0,19 L0,0 Z M16,0 L20,0 L20,2 L20,4 L10,14 L4,10 L14,0 L16,0 Z" id="path-1"/></defs><g id="Symbols" stroke="none" stroke-width="1" fill="none" fill-rule="evenodd"><g id="Card-/-Default" transform="translate(-230.000000, -14.000000)"><g id="Card"><g id="Group-2" transform="translate(230.000000, 13.000000)"><g id="Group" transform="translate(0.000000, 4.000000)"><mask id="mask-2" fill="#fff"><use xlink:href="#path-1"/></mask><path d="M3.15789474,1.5 C2.28586618,1.5 1.57894737,2.17157288 1.57894737,3 L1.57894737,16 C1.57894737,16.8284271 2.28586618,17.5 3.15789474,17.5 L15.8421053,17.5 C16.7141338,17.5 17.4210526,16.8284271 17.4210526,16 L17.4210526,3 C17.4210526,2.17157288 16.7141338,1.5 15.8421053,1.5 L3.15789474,1.5 Z M3.15789474,0 L15.8421053,0 C17.5861624,0 19,1.34314575 19,3 L19,16 C19,17.6568542 17.5861624,19 15.8421053,19 L3.15789474,19 C1.41383763,19 0,17.6568542 0,16 L0,3 C0,1.34314575 1.41383763,0 3.15789474,0 Z" id="Rectangle-2" fill="#FFF" fill-rule="nonzero" mask="url(#mask-2)"/></g><path d="M17.0973288,2.8897113 L20.1131118,5.90544898 L10.5605017,15.4579079 L7.51284021,16.2198118 C6.96977976,16.3555749 6.68098195,16.0385871 6.85556108,15.5148576 L8.04734913,11.9395473 L17.0973288,2.8897113 Z M17.5999593,2.38708836 L18.54511,1.4419483 C19.1320085,0.855056401 20.0800895,0.851451064 20.6626254,1.4339782 L21.5688593,2.34019849 C22.1524177,2.92374818 22.1478286,3.87075707 21.560893,4.45768597 L20.6157423,5.40282603 L17.5999593,2.38708836 Z" id="New-Post" fill="#FFF"/></g></g></g></g></svg>